{"title":"The Block - S12E18 - $10,000 Challenge","uid":15867393,"size":1188748564,"categoryP":"video","categoryS":"tv_shows","magnet":"?xt=urn:btih:b965b5b5fb95d8ac8b8cd43358be56d4b8cb3fb0&amp;dn=The+Block+-+S12E18+-+%2410%2C000+Challenge&amp;tr=udp%3A%2F%2Ftracker.leechers-paradise.org%3A6969&amp;tr=udp%3A%2F%2Fzer0day.ch%3A1337&amp;tr=udp%3A%2F%2Fopen.demonii.com%3A1337&amp;tr=udp%3A%2F%2Ftracker.coppersurfer.tk%3A6969&amp;tr=udp%3A%2F%2Fexodus.desync.com%3A6969","seeders":5,"leechers":3,"uploader":"Bullrout","files":1,"time":1474383909,"description":"The Block - S12E18 - $10,000 Challenge\r\n\r\nThe teams have a chance to win a share of $10,000. They must create a home away from home at a Stayz property, embracing the artist and stylist within. Julia and Sasha struggle to see eye to eye on the planning of their dining room.\r\n\r\nComplete name                            : The Block - S12E18 - $10,000 Challenge.mkv\r\nFormat                                   : Matroska\r\nFormat version                           : Version 4 / Version 2\r\nFile size                                : 1.11 GiB\r\nDuration                                 : 47 min 31 s\r\nOverall bit rate mode                    : Variable\r\nOverall bit rate                         : 3 335 kb/s\r\nEncoded date                             : UTC 2016-09-20 12:57:13\r\nWriting application                      : mkvmerge v9.4.2 ('So High') 64bit\r\nWriting library                          : libebml v1.3.4 + libmatroska v1.4.5\r\n\r\nVideo\r\nID                                       : 2\r\nFormat                                   : AVC\r\nFormat/Info                              : Advanced Video Codec\r\nFormat profile                           :   \r\nFormat settings, CABAC                   : Yes\r\nFormat settings, ReFrames                : 3 frames\r\nCodec ID                                 : V_MPEG4/ISO/AVC\r\nDuration                                 : 47 min 31 s\r\nBit rate mode                            : Variable\r\nBit rate                                 : 2 949 kb/s\r\nMaximum bit rate                         : 3 000 kb/s\r\nWidth                                    : 1 280 pixels\r\nHeight                                   : 720 pixels\r\nDisplay aspect ratio                     : 16:9\r\nFrame rate mode                          : Constant\r\nFrame rate                               : 25.000 FPS\r\nStandard                                 : PAL\r\nColor space                              : YUV\r\nChroma subsampling                       : 4:2:0\r\nBit depth                                : 8 bits\r\nScan type                                : Progressive\r\nBits/(Pixel*Frame)                       : 0.128\r\nStream size                              : 1 003 MiB (88%)\r\nWriting library                          : x264 core 112\r\nDefault                                  : Yes\r\nForced                                   : No\r\nColor range                              : Limited\r\nColor primaries                          : BT.709\r\nTransfer characteristics                 : BT.709\r\nMatrix coefficients                      : BT.709\r\n\r\nAudio\r\nID                                       : 1\r\nFormat                                   : AC-3\r\nFormat/Info                              : Audio Coding 3\r\nMode extension                           : CM (complete main)\r\nFormat settings, Endianness              : Big\r\nCodec ID                                 : A_AC3\r\nDuration                                 : 47 min 31 s\r\nBit rate mode                            : Constant\r\nBit rate                                 : 384 kb/s\r\nChannel(s)                               : 6 channels\r\nChannel positions                        : Front: L C R, Side: L R, LFE\r\nSampling rate                            : 48.0 kHz\r\nFrame rate                               : 31.250 FPS (1536 spf)\r\nCompression mode                         : Lossy\r\nStream size                              : 131 MiB (12%)\r\nDefault                                  : Yes\r\nForced                                   : No","torrent":{"xt":"urn:btih:b965b5b5fb95d8ac8b8cd43358be56d4b8cb3fb0","amp;dn":"The+Block+-+S12E18+-+%2410%2C000+Challenge","amp;tr":["udp%3A%2F%2Ftracker.leechers-paradise.org%3A6969","udp%3A%2F%2Fzer0day.ch%3A1337","udp%3A%2F%2Fopen.demonii.com%3A1337","udp%3A%2F%2Ftracker.coppersurfer.tk%3A6969","udp%3A%2F%2Fexodus.desync.com%3A6969"],"infoHash":"b965b5b5fb95d8ac8b8cd43358be56d4b8cb3fb0","infoHashBuffer":{"type":"Buffer","data":[185,101,181,181,251,149,216,172,139,140,212,51,88,190,86,212,184,203,63,176]},"announce":[],"urlList":[]}}